<?xml version="1.0" encoding="UTF-8"?>
<svg id="Layer_1" data-name="Layer 1" xmlns="http://www.w3.org/2000/svg" viewBox="0 0 384 384">
  <path d="M180,300H55.88c-14.77,0-31.89-18.56-31.86-33.39V105.39c1.78-18.17,15.84-31.98,34.09-33.41h267.81c18.31,1.37,32.24,15.22,34.08,33.41l.04,160.51c-1.45,18.5-15.57,32.74-34.12,34.13-22.24,1.67-46.43-1.43-68.88.12l-58.92,58.08c-5.92,5.21-18.11-1.3-18.11-8.36v-49.88ZM104.07,168.19c-29.41,3.96-25.38,51.35,7.23,47.72,30.25-3.36,26.19-52.23-7.23-47.72ZM188.07,168.19c-29.41,3.96-25.38,51.35,7.23,47.72,30.25-3.36,26.19-52.23-7.23-47.72ZM272.07,168.19c-29.41,3.96-25.38,51.35,7.23,47.72,30.25-3.36,26.19-52.23-7.23-47.72Z"/>
</svg>