<?xml version="1.0" encoding="UTF-8"?>
<svg id="Layer_1" data-name="Layer 1" xmlns="http://www.w3.org/2000/svg" viewBox="0 0 36 36">
  <path d="M17.19,29.46c-.22-.14-.37-.36-.57-.52-1.99-1.57-5.77-1.84-8.24-1.94-1.41-.06-3.77.54-3.9-1.51V7.42c.1-.88.72-1.37,1.58-1.44.39-.03.71.07,1.05.08,2.56.03,5.06.08,7.53.82.9.27,1.79.62,2.54,1.18v21.41Z"/>
  <path d="M18.74,29.46V8.05c1.07-.77,2.38-1.18,3.66-1.46,2.15-.47,4.22-.51,6.41-.54.34,0,.67-.11,1.05-.08.93.07,1.55.63,1.58,1.58l-.05,18.31c-.38,1.6-2.61,1.08-3.85,1.14-.15,0-.28.07-.42.07-2.85.12-6.24.29-8.39,2.39Z"/>
  <path d="M3.02,9v17.05c0,1.14,1.56,2.34,2.63,2.43,2.95.26,6.09-.16,8.9,1,.29.12.71.29.89.55H2.91c-.73,0-1.47-.86-1.44-1.58V10.65c0-.9.61-1.65,1.54-1.65Z"/>
  <path d="M20.49,30.02c.15-.23.5-.37.75-.48,2.88-1.26,6.12-.77,9.11-1.07,1.04-.1,2.56-1.34,2.56-2.43V9c.97,0,1.55.79,1.55,1.72v17.72c0,.72-.7,1.58-1.44,1.58h-12.53Z"/>
</svg>