<?xml version="1.0" encoding="UTF-8"?>
<svg id="Layer_1" data-name="Layer 1" xmlns="http://www.w3.org/2000/svg" viewBox="0 0 384 384">
  <path d="M215.1,159.97c38.58-3.06,81.5,1.08,120.34.72,20.05,4.52,31.47,19.75,32.81,39.94,2.54,38.4-1.14,80.45-.93,119.05-3.06,16.26-18.05,30.52-34.7,32.05-38.35,3.52-81.87-2.64-120.77.04-18.54-2.19-33.13-16.35-35.59-34.91l.09-122.15c3.4-20.45,18.35-33.13,38.75-34.75ZM211.32,176.45c-10.51,2.08-18.05,10.62-19.31,21.19v116.99c1.44,11.46,10.49,20.41,22.09,21.41,36.88,3.16,78.21-2.45,115.55,0,11.38-.82,21.13-9.93,22.12-21.38,3.25-37.57-2.51-79.75,0-117.81-.75-9.66-10.28-19.55-19.9-20.6l-120.56.2Z"/>
  <path d="M50.08,32.46l123.46-.13c50.89,9.41,29.77,69.93,34.24,106.08-.34,9.34-14.27,10.15-15.74.67-2.07-22.27,2.69-49.3-.24-71.01-1.46-10.8-11.2-19.17-21.9-20.1-37.08-3.2-78.71,2.44-116.27.03-11.79,1.56-20.52,10.09-21.41,22.09-2.82,37.75,2.2,78.95,0,117.06.75,9.66,10.28,19.55,19.9,20.6l100.32.18c12.21,3.05,8.54,17.2-3.54,16.35-30.05-1.45-61.71,1.82-91.56,0-24.85-1.52-40.11-16.75-41.62-41.62-2.33-38.13,1.14-79.4.86-117.7,3.26-16.83,16.56-29.82,33.5-32.5Z"/>
  <path d="M126.75,161.62c-1.53,10.83-14.74,11.33-17.2.7,1.43-20.61-2.09-44.19-.04-64.44,1.27-12.59,14.13-17.74,22.49-7.5l23.26,49.12v-48.38c0-.54,2.28-3.85,3.03-4.47,5.44-4.47,12.01-.07,13.42,6.02-1.61,20.65,2.32,45,.05,65.2-1.28,11.39-13.91,16.68-21.75,7.5l-23.25-48.37v44.62Z"/>
  <path d="M66,104.25v13.5h27.38c2.72,0,6.21,5.05,6.42,7.88s-3,8.62-5.67,8.62h-28.12v17.25h28.88c1.04,0,4.67,1.71,5.66,2.59,6.02,5.35,1.66,13.8-5.65,14.68-5.84.7-32.02.77-37-.53-6.37-1.66-8.73-8.11-9.17-14.08-1.32-17.66,1.05-36.94.03-54.78.92-6.31,5.01-11.67,11.63-12.37,6.26-.67,30.27-.96,35.83.17,5.98,1.22,9.38,8.89,5.07,13.73-.72.8-5.67,3.35-6.4,3.35h-28.88Z"/>
  <path d="M116.25,296.25c-6.68-6.34-4.33-18,6.22-15.59,3.35.76,19.23,16.57,20.58,19.91s1.29,5.37-.89,8.46c-1.87,2.64-14.17,14.84-16.89,16.86-9.86,7.32-18.76-6.49-9.02-13.89h-39.38c-9.39,0-19.64-11.53-20.63-20.62-.63-5.77-.82-23.75.05-29.21,1.24-7.87,14.51-8.68,15.72,1.44.81,6.75-2.09,25.94,2.18,30.07.69.66,4.3,2.58,4.92,2.58h37.12Z"/>
  <path d="M267.75,72h39.38c9.59,0,19.63,11.43,20.63,20.62.63,5.77.82,23.75-.05,29.21-1.22,7.72-14.51,8.68-15.72-1.44-.81-6.75,2.09-25.94-2.18-30.07-.69-.66-4.3-2.58-4.92-2.58h-37.12c6.69,6.33,4.31,18.02-6.22,15.59-1.61-.37-14.04-11.98-15.92-14.08-3.97-4.43-7.97-8.37-3.77-14.29,1.87-2.64,14.17-14.84,16.89-16.86,9.86-7.32,18.76,6.49,9.02,13.89Z"/>
  <path d="M315.49,280.24c5.54-5.8.05-10.8-5.54-13.06-11.63-4.7-26.82-4.77-32.27-18.73-8.65-22.1,14.15-37.01,34.35-32.1,8.51,2.07,30.47,14.65,17.99,24.04-7.74,5.82-10.5-2.62-15.5-5.53-6.98-4.07-26.43-4.35-20.71,7.96,1.55,3.33,19.93,7.63,24.7,9.8,34.55,15.7,9.68,57.14-24.47,46.22-7.92-2.53-19.25-10.67-21.43-19.07-1.71-6.59,4.38-12.98,10.94-10.94,3.8,1.18,5.95,7.54,8.56,10.19,5.1,5.18,18.33,6.52,23.39,1.21Z"/>
  <path d="M232.5,234.75v13.5h27.38c2.72,0,6.21,5.05,6.42,7.88s-3,8.62-5.67,8.62h-28.12v17.25h28.88c1.04,0,4.67,1.71,5.66,2.59,6.02,5.35,1.66,13.8-5.65,14.68-5.84.7-32.02.77-37-.53-6.37-1.66-8.73-8.11-9.17-14.08-1.32-17.66,1.05-36.94.03-54.78.92-6.31,5.01-11.67,11.63-12.37,6.26-.67,30.27-.96,35.83.17,5.98,1.22,9.38,8.89,5.07,13.73-.72.8-5.67,3.35-6.4,3.35h-28.88Z"/>
</svg>